<svg width="143" height="55" viewBox="0 0 143 55" fill="none" xmlns="http://www.w3.org/2000/svg">
<g clip-path="url(#clip0_2004_17)">
<path d="M42.64 28.3C42.64 30.344 42.318 32.262 41.674 34.054C41.03 35.818 40.106 37.372 38.902 38.716C37.726 40.06 36.312 41.11 34.66 41.866C33.008 42.622 31.174 43 29.158 43H19.372C17.328 43 15.48 42.622 13.828 41.866C12.176 41.11 10.748 40.06 9.544 38.716C8.368 37.372 7.458 35.818 6.814 34.054C6.17 32.262 5.848 30.344 5.848 28.3C5.848 26.284 6.17 24.394 6.814 22.63C7.458 20.838 8.368 19.27 9.544 17.926C10.748 16.554 12.176 15.49 13.828 14.734C15.48 13.978 17.328 13.6 19.372 13.6H29.158C31.174 13.6 33.008 13.978 34.66 14.734C36.312 15.49 37.726 16.554 38.902 17.926C40.106 19.27 41.03 20.838 41.674 22.63C42.318 24.394 42.64 26.284 42.64 28.3ZM38.44 28.3C38.44 26.368 38.062 24.604 37.306 23.008C36.578 21.412 35.514 20.152 34.114 19.228C32.742 18.276 31.09 17.8 29.158 17.8H19.372C17.44 17.8 15.774 18.276 14.374 19.228C13.002 20.152 11.938 21.412 11.182 23.008C10.426 24.604 10.048 26.368 10.048 28.3C10.048 30.232 10.426 31.996 11.182 33.592C11.938 35.16 13.002 36.42 14.374 37.372C15.774 38.324 17.44 38.8 19.372 38.8H29.158C31.09 38.8 32.742 38.324 34.114 37.372C35.514 36.42 36.578 35.16 37.306 33.592C38.062 31.996 38.44 30.232 38.44 28.3Z" fill="#B772FF"/>
<path d="M70.4384 24.1H54.6884C53.8204 24.1 53.0784 24.408 52.4624 25.024C51.8464 25.64 51.5384 26.382 51.5384 27.25V43H47.3384V27.25C47.3384 25.878 47.6604 24.646 48.3044 23.554C48.9764 22.434 49.8724 21.552 50.9924 20.908C52.1124 20.236 53.3444 19.9 54.6884 19.9H70.4384V24.1ZM101.054 31.45C101.054 33.046 100.76 34.544 100.172 35.944C99.5845 37.316 98.7585 38.534 97.6945 39.598C96.6585 40.662 95.4405 41.502 94.0405 42.118C92.6685 42.706 91.1845 43 89.5885 43H73.8385V11.5H78.0385V38.8H89.5885C90.9325 38.8 92.1505 38.464 93.2425 37.792C94.3625 37.12 95.2445 36.238 95.8885 35.146C96.5325 34.026 96.8545 32.794 96.8545 31.45C96.8545 30.106 96.5325 28.888 95.8885 27.796C95.2445 26.676 94.3625 25.78 93.2425 25.108C92.1505 24.436 90.9325 24.1 89.5885 24.1H80.1385V19.9H89.5885C91.1845 19.9 92.6685 20.208 94.0405 20.824C95.4405 21.412 96.6585 22.238 97.6945 23.302C98.7585 24.366 99.5845 25.598 100.172 26.998C100.76 28.37 101.054 29.854 101.054 31.45ZM110.876 14.65C110.876 15.518 110.568 16.26 109.952 16.876C109.336 17.492 108.594 17.8 107.726 17.8C106.858 17.8 106.116 17.492 105.5 16.876C104.884 16.26 104.576 15.518 104.576 14.65C104.576 13.782 104.884 13.04 105.5 12.424C106.116 11.808 106.858 11.5 107.726 11.5C108.594 11.5 109.336 11.808 109.952 12.424C110.568 13.04 110.876 13.782 110.876 14.65ZM109.826 43H105.626V19.9H109.826V43ZM123.985 43H119.785V24.1H113.485V19.9H119.785V11.5H123.985V19.9H138.685V24.1H123.985V43Z" fill="white"/>
<path d="M111 14.5C111 16.433 109.433 18 107.5 18C105.567 18 104 16.433 104 14.5C104 12.567 105.567 11 107.5 11C109.433 11 111 12.567 111 14.5Z" fill="#B772FF"/>
</g>
<defs>
<clipPath id="clip0_2004_17">
<rect width="143" height="55" fill="white"/>
</clipPath>
</defs>
</svg>
